<svg width="1440" height="616" viewBox="0 0 1440 616" fill="none" xmlns="http://www.w3.org/2000/svg">
<g opacity="0.6" clip-path="url(#clip0_774_8884)">
<path d="M884.811 753.184C881.431 753.184 878.041 753.068 874.641 752.826C835.674 750.096 808.657 727.383 780.04 703.34C775.355 699.396 770.498 695.325 765.571 691.301C716.13 651.055 659.08 627.104 600.583 622.05C504.849 613.77 412.646 649.135 323.468 683.321C305.771 690.109 287.476 697.129 269.545 703.64C213.861 723.867 163.591 740.162 112.359 734.68C58.5877 728.921 16.2707 694.088 -17 628.18L-16.1197 627.601C16.9791 693.163 59.0431 727.799 112.46 733.524C163.5 738.982 213.659 722.722 269.242 702.53C287.162 696.019 305.457 688.999 323.155 682.222C412.423 647.99 504.727 612.602 600.664 620.894C659.343 625.971 716.565 649.991 766.157 690.364C771.095 694.388 775.952 698.459 780.638 702.403C809.122 726.342 836.028 748.963 874.692 751.669C936.306 755.983 994.398 719.831 1050.58 684.871C1067.04 674.624 1082.58 664.956 1098.08 656.375C1139.72 633.326 1194.95 606.542 1252.86 603.974C1320.49 600.991 1386.61 631.36 1455.03 696.84L1454.38 697.731C1386.17 632.436 1320.28 602.136 1252.9 605.131C1195.18 607.687 1140.07 634.413 1098.51 657.416C1083.04 665.985 1067.5 675.653 1051.05 685.888C997.848 718.998 942.913 753.172 884.791 753.184H884.811Z" fill="#E2E8F0"/>
<path d="M886.875 732.586C882.767 732.586 878.659 732.425 874.52 732.078C836.443 728.886 809.739 706.693 781.467 683.193C776.114 678.741 770.579 674.149 764.933 669.651C717.607 631.949 662.51 608.947 605.592 603.13C510.9 593.461 419.324 627.925 330.764 661.255C310.557 668.864 289.662 676.728 269.211 683.864C217.899 701.778 167.639 717.402 116.68 711.885C62.0383 705.964 18.3351 670.888 -16.9189 604.679L-16.0588 604.078C19.013 669.963 62.4633 704.854 116.771 710.74C167.537 716.245 217.706 700.644 268.918 682.765C289.358 675.63 310.253 667.766 330.451 660.156C419.102 626.791 510.778 592.282 605.683 601.973C662.773 607.802 718.042 630.874 765.51 668.691C771.166 673.201 776.701 677.804 782.064 682.256C810.215 705.652 836.807 727.752 874.591 730.921C936.154 736.091 994.509 701.142 1050.93 667.349C1066.18 658.213 1080.58 649.586 1094.96 641.803C1139.62 617.62 1193.06 592.386 1250.68 588.604C1318.88 584.14 1385.74 612.081 1455.06 674.045L1454.43 674.959C1385.31 613.18 1318.68 585.308 1250.73 589.761C1193.28 593.531 1139.97 618.708 1095.38 642.855C1081.03 650.627 1066.63 659.254 1051.39 668.378C998.618 699.985 944.168 732.598 886.855 732.598L886.875 732.586Z" fill="#E2E8F0"/>
<path d="M888.333 713.805C883.455 713.805 878.578 713.574 873.67 713.1C836.291 709.445 809.861 687.854 781.872 665.002C775.912 660.133 769.74 655.09 763.415 650.187C715.311 612.89 660.153 590.385 603.933 585.1C511.376 576.415 421.804 609.166 335.186 640.843C315.252 648.128 294.65 655.669 274.453 662.527C225.053 679.284 172.516 695.151 120.93 689.056C65.3675 682.499 20.3488 646.984 -16.6963 580.486L-15.8463 579.861C21.0166 646.035 65.7925 681.377 121.021 687.9C172.415 693.96 224.85 678.139 274.149 661.416C294.337 654.57 314.938 647.03 334.862 639.744C421.581 608.033 511.244 575.235 604.003 583.944C660.406 589.24 715.725 611.815 763.972 649.216C770.306 654.131 776.479 659.173 782.449 664.042C810.316 686.801 836.635 708.3 873.741 711.932C935.83 717.98 994.904 683.806 1052.02 650.731C1067.24 641.918 1081.61 633.603 1095.98 626.074C1139.46 603.28 1191.56 579.295 1248.28 574.252C1317.12 568.146 1384.78 593.519 1455.16 651.841L1454.56 652.777C1384.4 594.618 1316.94 569.314 1248.36 575.397C1191.81 580.416 1139.81 604.356 1096.41 627.115C1082.06 634.632 1067.69 642.959 1052.49 651.76C999.751 682.291 945.342 713.782 888.333 713.794V713.805Z" fill="#E2E8F0"/>
<path d="M888.707 696.816C883.202 696.816 877.677 696.527 872.132 695.926C834.976 691.878 808.525 670.471 780.526 647.793C774.253 642.716 767.766 637.465 761.108 632.365C713.317 595.797 658.179 573.743 601.635 568.585C511.517 560.374 424.1 591.195 339.568 620.997C319.826 627.959 299.416 635.152 279.401 641.698C228.22 658.409 173.72 674.01 119.655 665.325C65.8834 656.698 21.3909 620.824 -16.3423 555.667L-15.5024 555.031C22.0688 619.898 66.3286 655.599 119.797 664.192C173.669 672.842 228.048 657.276 279.128 640.6C299.133 634.065 319.542 626.872 339.274 619.91C423.898 590.073 511.416 559.206 601.726 567.452C658.442 572.621 713.752 594.745 761.685 631.417C768.353 636.529 774.85 641.779 781.123 646.856C809.011 669.442 835.35 690.768 872.243 694.781C934.505 701.558 994.064 668.239 1051.65 636.031C1065.64 628.202 1078.86 620.812 1092.1 614C1136.48 591.16 1189.44 566.989 1245.72 560.895C1282.15 556.951 1319.14 561.496 1355.64 574.425C1388.44 586.037 1421.98 604.818 1455.33 630.249L1454.77 631.209C1421.49 605.836 1388.04 587.101 1355.35 575.524C1318.97 562.652 1282.12 558.119 1245.82 562.051C1189.69 568.134 1136.83 592.258 1092.52 615.064C1079.31 621.864 1066.1 629.254 1052.11 637.084C999.518 666.505 945.281 696.839 888.727 696.839L888.707 696.816Z" fill="#E2E8F0"/>
<path d="M888.393 681.308C882.069 681.308 875.714 680.937 869.339 680.151C832.577 675.641 806.198 654.512 778.259 632.134C771.794 626.953 765.105 621.598 758.224 616.406C710.686 580.508 655.994 558.709 600.077 553.377C512.296 545.004 426.903 573.766 344.323 601.58C323.802 608.495 302.583 615.642 281.759 622.061C233.401 636.968 177.221 652.048 122.63 642.172C68.6356 632.4 23.3134 595.797 -15.9072 530.271L-15.0674 529.623C23.9913 594.872 69.091 631.313 122.792 641.039C177.201 650.892 233.239 635.835 281.506 620.951C302.32 614.532 323.539 607.385 344.05 600.481C426.721 572.633 512.205 543.848 600.168 552.232C656.257 557.575 711.111 579.444 758.791 615.446C765.682 620.65 772.37 626.004 778.846 631.197C806.673 653.482 832.952 674.542 869.45 679.018C932.491 686.743 993.042 653.933 1051.6 622.188C1064.84 615.006 1077.34 608.229 1089.87 601.926C1134.73 579.34 1188.13 555.285 1244.24 548.219C1280.64 543.628 1317.63 546.993 1354.2 558.223C1387.6 568.469 1421.68 585.597 1455.51 609.131L1454.99 610.114C1421.23 586.638 1387.23 569.545 1353.94 559.333C1317.49 548.15 1280.62 544.796 1244.34 549.364C1188.38 556.419 1135.05 580.427 1090.26 602.99C1077.75 609.293 1065.25 616.07 1052.01 623.24C999.245 651.84 944.856 681.331 888.383 681.331L888.393 681.308Z" fill="#E2E8F0"/>
<path d="M887.634 667.199C879.417 667.199 871.181 666.586 862.893 665.267C827.912 659.693 802.453 639.489 775.497 618.106C768.738 612.74 761.745 607.2 754.551 601.846C705.879 565.66 652.776 544.542 596.717 539.072C512.033 530.803 429.453 557.125 349.595 582.567C326.909 589.795 303.443 597.278 280.372 603.8C230.911 617.805 178.05 629.359 126.606 619.158C71.9747 608.322 25.5292 570.771 -15.3711 504.354L-14.5413 503.684C26.2072 569.846 72.43 607.235 126.788 618.014C178.05 628.179 230.79 616.649 280.139 602.679C303.19 596.156 326.646 588.674 349.332 581.446C429.281 555.968 511.952 529.635 596.818 537.916C653.039 543.409 706.294 564.584 755.118 600.874C762.332 606.229 769.324 611.78 776.084 617.146C802.939 638.449 828.297 658.571 863.035 664.111C927.603 674.404 990.178 641.49 1050.68 609.652C1062.65 603.349 1073.96 597.405 1085.29 591.796C1135.18 567.07 1189.33 543.154 1247.18 535.649C1282.86 531.023 1319.13 533.532 1354.99 543.143C1388.15 552.025 1422.06 567.256 1455.77 588.419L1455.28 589.437C1421.66 568.319 1387.84 553.123 1354.76 544.276C1319.01 534.7 1282.86 532.191 1247.29 536.805C1189.57 544.299 1135.5 568.169 1085.68 592.86C1074.37 598.469 1063.05 604.413 1051.09 610.705C998.192 638.53 943.723 667.187 887.624 667.187L887.634 667.199Z" fill="#E2E8F0"/>
<path d="M885.266 654.143C876.534 654.143 867.791 653.46 859.069 651.992C824.068 646.082 798.396 625.924 771.217 604.576C764.518 599.314 757.597 593.878 750.483 588.628C702.146 552.927 649.578 531.833 594.238 525.946C512.094 517.192 431.689 541.177 353.926 564.365C330.471 571.361 306.226 578.589 282.356 584.788C233.38 597.51 180.955 607.652 129.46 595.96C99.6802 589.194 72.8754 575.236 47.5277 553.297C25.59 534.319 5.22081 509.698 -14.7437 478.045L-13.924 477.374C5.97973 508.934 26.2882 533.463 48.1348 552.384C73.3611 574.218 100.024 588.096 129.662 594.827C180.975 606.484 233.269 596.353 282.133 583.666C305.983 577.479 330.228 570.24 353.673 563.255C431.517 540.044 512.013 516.035 594.329 524.801C649.831 530.711 702.561 551.863 751.03 587.668C758.153 592.93 765.085 598.377 771.783 603.639C798.862 624.907 824.432 644.995 859.21 650.858C924.831 661.949 988.61 629.301 1050.3 597.741C1061.44 592.039 1071.96 586.662 1082.51 581.527C1133.14 556.894 1187.91 532.908 1245.5 524.246C1281.23 518.869 1317.59 520.152 1353.58 528.063C1387.35 535.487 1421.83 548.972 1456.06 568.158L1455.61 569.199C1421.46 550.059 1387.07 536.598 1353.39 529.196C1317.52 521.309 1281.27 520.025 1245.64 525.391C1188.17 534.03 1133.47 557.993 1082.92 582.591C1072.36 587.726 1061.85 593.103 1050.72 598.793C999.579 624.953 942.519 654.143 885.266 654.154V654.143Z" fill="#E2E8F0"/>
<path d="M883.658 642.115C874.298 642.115 864.907 641.374 855.477 639.767C819.788 633.695 793.57 613.26 765.814 591.611C759.338 586.569 752.649 581.341 745.788 576.276C700.122 542.541 648.273 521.065 595.858 514.173C514.765 503.498 434.938 525.495 357.731 546.751C334.357 553.193 310.193 559.842 286.403 565.474C240.16 576.415 185.822 585.852 133.366 572.934C103.252 565.509 75.9619 550.856 49.9363 528.108C27.6141 508.599 6.68836 483.48 -14.0249 451.306L-13.2053 450.624C7.45739 482.705 28.3123 507.754 50.5636 527.195C76.4679 549.827 103.627 564.422 133.589 571.8C185.863 584.684 240.069 575.258 286.211 564.341C309.98 558.721 334.134 552.059 357.498 545.629C434.786 524.338 514.705 502.33 595.979 513.016C648.557 519.932 700.547 541.477 746.345 575.305C753.216 580.382 759.914 585.609 766.39 590.651C794.055 612.22 820.182 632.597 855.628 638.622C922.726 650.025 987.942 617.47 1051.02 585.99C1061.79 580.613 1071.97 575.536 1082.21 570.655C1132.09 546.843 1186.02 523.459 1242.41 513.56C1312.79 501.209 1384.78 512.866 1456.4 548.185L1456 549.249C1384.56 514.011 1312.75 502.388 1242.56 514.705C1186.28 524.581 1132.42 547.942 1082.6 571.719C1072.37 576.6 1062.2 581.677 1051.44 587.054C997.08 614.186 941.133 642.115 883.678 642.115H883.658Z" fill="#E2E8F0"/>
<path d="M881.047 630.954C871.039 630.954 860.991 630.133 850.892 628.352C814.809 621.98 788.105 601.348 759.833 579.502C753.681 574.749 747.326 569.834 740.83 565.046C695.538 531.635 644.276 510.032 592.599 502.585C514.188 491.274 436.647 510.738 361.647 529.554C337.533 535.602 312.601 541.859 288.032 546.994C245.159 555.945 189.151 564.341 136.108 549.665C80.09 534.168 32.6225 494.327 -13.2866 424.291L-12.4771 423.597C33.2803 493.414 80.5656 533.116 136.341 548.543C189.201 563.161 245.078 554.788 287.85 545.86C312.388 540.737 337.321 534.48 361.424 528.432C436.506 509.593 514.138 490.118 592.72 501.44C644.549 508.91 695.953 530.571 741.376 564.075C747.883 568.874 754.247 573.789 760.4 578.542C788.571 600.307 815.183 620.87 851.044 627.207C919.478 639.304 986.161 606.807 1050.64 575.374C1060.43 570.597 1069.69 566.087 1079.03 561.692C1137.76 534.076 1187.69 513.548 1240.52 503.151C1311.69 489.146 1384.44 497.681 1456.73 528.524L1456.37 529.612C1384.25 498.838 1311.67 490.326 1240.69 504.296C1187.95 514.67 1138.09 535.174 1079.42 562.756C1070.09 567.151 1060.83 571.661 1051.03 576.438C995.905 603.303 939.179 630.954 881.036 630.954H881.047Z" fill="#E2E8F0"/>
<path d="M877.373 620.362C866.921 620.362 856.478 619.494 846.045 617.598C809.385 610.913 782.054 589.981 753.124 567.823C747.437 563.463 741.558 558.964 735.578 554.546C690.064 520.95 640.785 499.752 589.108 491.553C513.571 479.571 438.519 496.421 365.927 512.716C340.923 518.325 315.06 524.142 289.57 528.676C247.304 536.204 191.964 542.739 138.83 526.351C82.8323 509.073 34.7577 467.972 -12.4771 396.998L-11.6675 396.293C35.4154 467.058 83.3281 508.032 139.093 525.229C192.035 541.559 247.233 535.036 289.408 527.531C314.877 522.997 340.731 517.192 365.725 511.583C438.388 495.265 513.53 478.392 589.24 490.408C641.068 498.63 690.489 519.886 736.125 553.575C742.105 557.993 747.994 562.503 753.681 566.863C782.519 588.952 809.759 609.815 846.197 616.464C916.118 629.22 984.36 596.665 1050.37 565.197C1058.73 561.208 1067.38 557.079 1075.74 553.205C1124.09 530.769 1180.53 505.777 1238.6 493.102C1310.62 477.386 1384.15 482.763 1457.12 509.096L1456.82 510.195C1384 483.92 1310.65 478.554 1238.79 494.236C1180.82 506.888 1124.42 531.856 1076.13 554.269C1067.77 558.143 1059.13 562.272 1050.76 566.261C997.069 591.866 937.277 620.373 877.363 620.373L877.373 620.362Z" fill="#E2E8F0"/>
<path d="M874.196 610.358C863.116 610.358 852.046 609.421 840.997 607.351C803.567 600.354 775.477 578.994 745.728 556.373C740.648 552.51 735.396 548.509 730.084 544.588C684.984 511.224 636.313 489.806 585.425 480.936C512.6 468.249 439.866 482.555 369.52 496.386C343.818 501.44 317.235 506.667 291.028 510.507C229.272 519.551 183.171 517.249 141.542 503.024C85.5951 483.919 36.9235 441.488 -11.6064 369.52L-10.8071 368.814C37.5913 440.586 86.101 482.878 141.836 501.914C183.323 516.081 229.293 518.383 290.906 509.35C317.104 505.511 343.666 500.295 369.358 495.241C439.775 481.398 512.59 467.069 585.587 479.791C636.616 488.684 685.43 510.148 730.651 543.605C735.963 547.537 741.225 551.539 746.305 555.402C775.953 577.941 803.952 599.244 841.169 606.206C912.709 619.586 985.797 585.435 1050.28 555.297C1057.55 551.897 1065.07 548.393 1072.35 545.051C1147.12 510.796 1205.43 490.962 1261.42 480.751C1330.35 468.18 1394.5 471.14 1457.53 489.794L1457.27 490.916C1394.39 472.297 1330.37 469.336 1261.59 481.895C1205.67 492.096 1147.43 511.906 1072.73 546.127C1065.45 549.457 1057.93 552.973 1050.67 556.373C995.997 581.92 935.142 610.358 874.207 610.358H874.196Z" fill="#E2E8F0"/>
<path d="M870.897 600.701C859.18 600.701 847.482 599.695 835.795 597.451C797.404 590.108 768.404 568.181 737.693 544.97C733.322 541.662 728.91 538.332 724.417 535.001C679.732 501.833 631.678 480.172 581.6 470.608C511.486 457.228 441.069 469.001 372.97 480.404C346.59 484.821 319.32 489.378 292.404 492.431C232.51 499.22 185.417 495.172 144.203 479.698C88.3167 458.719 39.0784 414.935 -10.7568 341.938L-9.95745 341.221C39.7463 414.033 88.8327 457.69 144.517 478.599C185.589 494.015 232.551 498.051 292.302 491.286C319.188 488.244 346.458 483.676 372.828 479.259C440.999 467.856 511.497 456.048 581.772 469.475C632.002 479.062 680.178 500.781 724.974 534.041C729.466 537.372 733.878 540.714 738.26 544.022C768.879 567.163 797.789 589.02 835.967 596.318C909.278 610.346 984.269 575.941 1050.44 545.595C1056.63 542.75 1062.77 539.939 1068.86 537.175C1120.3 513.895 1188.44 485.261 1259.47 470.4C1329.36 455.77 1394.28 455.851 1457.93 470.654L1457.73 471.788C1394.21 457.019 1329.42 456.938 1259.65 471.533C1188.71 486.383 1120.63 514.982 1069.24 538.251C1063.15 541.003 1057 543.825 1050.81 546.67C995.045 572.251 933.007 600.701 870.897 600.701Z" fill="#E2E8F0"/>
<path d="M867.619 591.288C855.021 591.288 842.433 590.155 829.886 587.634C790.827 579.781 760.987 557.38 729.386 533.66C725.905 531.047 722.404 528.422 718.862 525.785C672.943 491.669 624.069 469.406 573.606 459.588C507.54 446.739 440.969 455.864 376.582 464.676C348.806 468.481 320.079 472.413 291.706 474.553C233.381 478.947 187.016 473.026 145.802 455.898C90.4116 432.896 40.9507 387.886 -9.85596 314.264L-9.05657 313.547C41.6287 386.995 90.9479 431.878 146.156 454.811C187.239 471.87 233.472 477.779 291.655 473.396C319.998 471.257 348.705 467.325 376.471 463.52C440.928 454.684 507.571 445.56 573.788 458.431C624.383 468.273 673.388 490.605 719.429 524.802C722.97 527.439 726.482 530.064 729.963 532.677C761.473 556.328 791.232 578.671 830.088 586.477C904.968 601.523 981.83 566.956 1049.64 536.448C1053.99 534.493 1058.32 532.539 1062.61 530.619C1119.45 505.211 1186.9 477.016 1256.22 460.49C1327.7 443.455 1393.82 440.517 1458.37 451.527L1458.22 452.672C1393.79 441.697 1327.78 444.623 1256.43 461.623C1187.17 478.126 1119.77 506.31 1062.97 531.694C1058.67 533.614 1054.35 535.557 1050 537.523C993.406 562.977 930.518 591.265 867.639 591.265L867.619 591.288Z" fill="#E2E8F0"/>
<path d="M864.391 581.804C851.115 581.804 837.839 580.59 824.614 577.884C784.22 569.615 753.155 546.346 720.269 521.713C717.901 519.932 715.513 518.151 713.115 516.359C667.641 482.451 619.424 459.888 569.792 449.317C506.336 435.798 442.041 442.598 379.861 449.178C351.457 452.185 322.082 455.285 293.092 456.441C236.558 458.685 189.252 450.855 148.463 432.525C117.975 418.809 89.5009 398.883 61.4313 371.613C38.2187 349.05 15.1781 321.248 -8.97559 286.612L-8.18632 285.895C43.7941 360.407 93.6901 406.655 148.838 431.461C189.495 449.745 236.669 457.54 293.062 455.296C322.032 454.151 351.387 451.04 379.77 448.045C442.021 441.465 506.387 434.653 569.974 448.207C619.738 458.812 668.086 481.421 713.671 515.422C716.069 517.214 718.457 518.995 720.825 520.776C753.62 545.34 784.594 568.551 824.796 576.773C901.75 592.513 980.778 557.529 1050.52 526.663L1059.06 522.893C1120.63 495.704 1186.93 468.087 1254.52 450.289C1327.04 431.184 1393.86 425.355 1458.77 432.479L1458.67 433.635C1393.86 426.523 1327.16 432.34 1254.75 451.422C1187.22 469.209 1120.96 496.814 1059.42 523.98L1050.89 527.75C992.991 553.378 928.696 581.85 864.412 581.85L864.391 581.804Z" fill="#E2E8F0"/>
<path d="M861.386 572.183C847.371 572.183 833.367 570.887 819.423 567.973C777.501 559.23 745.07 534.944 710.737 509.224L707.458 506.772C662.429 473.072 614.851 450.255 566.047 438.933C505.152 424.812 443.104 429.392 383.099 433.833C354.088 435.972 324.096 438.193 294.508 438.285C293.992 438.285 293.466 438.285 292.95 438.285C238.076 438.285 191.671 428.744 151.145 409.142C95.1269 382.045 46.0101 335.74 -8.10547 259.007L-7.3162 258.278C46.688 334.861 95.6834 381.062 151.539 408.078C191.944 427.622 238.217 437.129 292.95 437.129C293.466 437.129 293.982 437.129 294.508 437.129C324.066 437.036 354.038 434.816 383.038 432.676C443.104 428.235 505.223 423.644 566.25 437.799C615.184 449.144 662.885 472.031 708.015 505.801L711.293 508.252C745.535 533.903 777.885 558.131 819.605 566.828C898.785 583.331 980.161 547.839 1051.96 516.521L1055.56 514.96C1192.83 455.112 1317.94 406.123 1459.18 413.282L1459.14 414.438C1318.1 407.326 1193.08 456.245 1055.92 516.047L1052.33 517.608C993.032 543.479 927.209 572.183 861.396 572.183H861.386Z" fill="#E2E8F0"/>
<path d="M858.755 562.237C845.054 562.237 831.353 561.045 817.672 558.397C772.026 549.561 736.479 522.777 702.095 496.861C658.25 463.82 611.633 440.852 563.528 428.582C504.616 413.547 444.227 416.069 385.811 418.497C357.377 419.677 327.982 420.903 299.032 420.105C242.336 418.543 194.494 407.14 152.764 385.225C96.9989 355.955 47.6392 308.55 -7.26562 231.528L-6.47636 230.8C48.3374 307.671 97.5756 354.983 153.199 384.173C194.797 406.007 242.518 417.387 299.072 418.937C327.992 419.735 357.377 418.509 385.79 417.329C444.267 414.9 504.727 412.379 563.761 427.437C611.987 439.742 658.726 462.767 702.662 495.889C736.955 521.736 772.421 548.451 817.845 557.252C898.815 572.922 981.446 537.291 1054.35 505.846C1174.79 453.909 1311.3 395.032 1459.56 394.003V395.159C1311.48 396.189 1175.06 455.03 1054.71 506.933C993.973 533.128 926.49 562.225 858.745 562.225L858.755 562.237Z" fill="#E2E8F0"/>
<path d="M856.458 551.794C841.674 551.794 826.88 550.464 812.157 547.492C768.96 538.749 734.445 514.717 696.995 486.545C653.595 453.897 607.888 430.756 561.15 417.78C504.423 402.029 445.916 402.607 389.332 403.174C359.592 403.475 328.851 403.775 298.626 401.728C236.709 397.519 180.894 377.859 127.993 341.626C80.9703 309.418 36.9939 264.489 -6.44629 204.27L-5.66714 203.53C37.7022 263.644 81.5876 308.493 128.509 340.631C181.278 376.772 236.942 396.374 298.687 400.572C328.872 402.619 359.603 402.318 389.322 402.018C445.967 401.451 504.545 400.873 561.392 416.659C608.253 429.669 654.061 452.868 697.562 485.585C734.92 513.688 769.345 537.662 812.35 546.37C896.356 563.382 983.368 526.259 1053.29 496.433L1057.86 494.479C1191.61 437.418 1317.94 383.514 1459.96 374.586L1460.01 375.742C1318.15 384.659 1191.89 438.528 1058.22 495.554L1053.64 497.508C995.845 522.165 926.359 551.805 856.468 551.805L856.458 551.794Z" fill="#E2E8F0"/>
<path d="M855.194 540.889C839.307 540.889 823.451 539.397 807.595 536.089C763.264 526.826 727.646 502.054 692.048 475.316C649.053 443.004 603.923 419.747 557.922 406.17C503.523 390.118 447.172 388.904 392.682 387.736C362.366 387.076 331.018 386.406 300.266 383.202C185.438 371.221 88.216 305.776 -5.70703 177.232L-4.92788 176.492C88.813 304.781 185.812 370.099 300.357 382.046C331.068 385.249 362.396 385.931 392.702 386.579C447.263 387.759 503.675 388.973 558.185 405.048C604.287 418.648 649.518 441.963 692.614 474.345C728.121 501.025 763.638 525.727 807.787 534.956C887.665 551.644 968.008 522.003 1050.14 487.459C1060.15 483.25 1070.14 479.028 1080.11 474.807C1206.92 421.204 1326.7 370.573 1460.31 354.926L1460.41 356.083C1326.93 371.718 1207.22 422.326 1080.47 475.906C1070.49 480.127 1060.5 484.348 1050.5 488.558C984.502 516.313 919.64 540.912 855.204 540.912L855.194 540.889Z" fill="#E2E8F0"/>
<path d="M854.333 529.15C837.141 529.15 819.919 527.485 802.697 523.726C757.81 513.931 721.25 488.465 687.646 463.219C645.521 431.566 601.251 408.355 556.07 394.223C503.604 377.813 449.084 374.944 396.355 372.157C364.804 370.492 332.181 368.769 300.236 364.189C188.089 348.079 91.0997 280.182 -4.98877 150.506L-4.21974 149.754C91.6967 279.188 188.473 346.958 300.357 363.033C332.262 367.612 364.865 369.335 396.395 371.001C449.185 373.788 503.766 376.656 556.334 393.101C601.615 407.257 645.986 430.525 688.202 462.247C721.726 487.436 758.184 512.832 802.889 522.593C884.862 540.472 967.128 510.889 1044.37 479.051C1065.5 470.343 1086.86 461.345 1107.53 452.649C1220.49 405.094 1337.3 355.909 1460.63 334.988L1460.79 336.133C1337.56 357.031 1220.8 406.193 1107.88 453.736C1087.22 462.432 1065.86 471.43 1044.72 480.138C983.561 505.35 919.225 529.15 854.343 529.15H854.333Z" fill="#E2E8F0"/>
<path d="M854.151 516.463C835.512 516.463 816.823 514.577 798.214 510.275C757.496 500.85 724.225 480.276 683.73 450.15C640.553 418.011 595.554 394.396 549.979 379.963C500.66 364.339 449.296 360.175 399.623 356.139C368.558 353.618 336.441 351.016 305.062 345.638C244.096 335.195 187.866 309.822 133.154 268.073C86.9813 232.835 42.0031 185.766 -4.37158 124.172L-3.60255 123.42C42.7012 184.933 87.6188 231.944 133.71 267.113C188.291 308.77 244.39 334.073 305.204 344.493C336.552 349.859 368.649 352.462 399.694 354.983C449.418 359.019 500.832 363.182 550.242 378.841C595.918 393.309 641.018 416.97 684.276 449.178C724.66 479.235 757.85 499.751 798.406 509.142C882.97 528.721 969.425 498.098 1043.83 467.856C1074.32 455.47 1105.05 442.448 1134.77 429.865C1239.5 385.514 1347.79 339.659 1460.9 314.725L1461.09 315.859C1348.06 340.781 1239.8 386.613 1135.11 430.952C1105.38 443.535 1074.65 456.557 1044.16 468.943C985.989 492.593 920.429 516.463 854.131 516.463H854.151Z" fill="#E2E8F0"/>
<path d="M855.041 502.839C834.722 502.839 814.414 500.653 794.207 495.68C753.62 485.688 719.337 464.467 680.349 435.67C637.901 404.318 593.692 380.922 548.936 366.131C501.539 350.461 452.079 345.106 404.237 339.937C371.755 336.421 338.161 332.79 305.436 325.966C245.179 313.395 189.171 286.31 134.226 243.162C88.5695 207.311 43.4193 159.918 -3.81543 98.2662L-3.05652 97.5029C44.1276 159.086 89.2171 206.421 134.802 242.214C189.636 285.258 245.503 312.285 305.619 324.833C338.302 331.656 371.867 335.276 404.328 338.792C452.21 343.973 501.722 349.316 549.209 365.021C594.056 379.847 638.366 403.3 680.896 434.699C719.793 463.426 753.984 484.601 794.419 494.547C876.291 514.704 960.115 488.822 1038.52 457.852C1082.54 440.458 1126.73 421.503 1169.46 403.173C1263.5 362.835 1360.73 321.132 1461.16 294.047L1461.39 295.169C1361.02 322.242 1263.82 363.934 1169.82 404.26C1127.08 422.591 1082.89 441.545 1038.84 458.95C979.624 482.346 917.302 502.839 855.031 502.839H855.041Z" fill="#E2E8F0"/>
<path d="M857.085 487.863C834.975 487.863 812.785 485.4 790.766 479.687C746.668 468.226 709.239 442.795 677.628 419.862C635.574 389.365 592.083 366.282 548.359 351.282C502.531 335.554 454.578 329.205 408.213 323.053C374.599 318.6 339.84 313.986 306.094 305.856C246.555 291.492 190.729 262.927 135.42 218.507C90.2593 182.228 44.8561 134.592 -3.38037 72.8705L-2.62146 72.0957C45.5543 133.748 90.907 181.326 136.007 217.547C191.205 261.875 246.909 290.382 306.317 304.711C340.023 312.841 374.75 317.444 408.345 321.896C454.76 328.049 502.744 334.409 548.663 350.161C592.477 365.195 636.049 388.313 678.184 418.867C709.735 441.754 747.073 467.127 791.009 478.542C875.997 500.631 963.829 473.928 1038.55 444.9C1093.69 423.47 1148.87 399.277 1202.22 375.869C1286.09 339.082 1372.83 301.033 1461.38 272.942L1461.66 274.052C1373.16 302.132 1286.44 340.169 1202.58 376.945C1149.22 400.352 1094.04 424.546 1038.87 445.987C983.358 467.555 920.591 487.84 857.105 487.84L857.085 487.863Z" fill="#E2E8F0"/>
<path d="M860.576 471.754C835.319 471.754 811.5 468.62 788.601 462.34C745.798 450.602 709.249 426.212 675.472 402.226C633.671 372.551 590.575 349.872 547.368 334.803C503.391 319.48 457.361 312.402 412.838 305.567C378.545 300.305 343.099 294.858 308.755 285.676C171.372 248.957 69.961 139.392 -3.04639 48.0414L-2.29759 47.2666C70.6086 138.49 171.868 247.905 308.998 284.577C343.281 293.748 378.717 299.183 412.979 304.445C457.533 311.292 503.614 318.358 547.671 333.716C590.96 348.808 634.137 371.533 676.008 401.255C709.704 425.182 746.183 449.526 788.833 461.218C876.129 485.158 967.127 458.05 1036.64 431.751C1105.04 405.881 1173.11 375.095 1238.94 345.304C1311.24 312.599 1386.01 278.772 1461.51 251.34L1461.82 252.438C1386.35 279.859 1311.6 313.674 1239.31 346.38C1173.47 376.171 1105.38 406.968 1036.97 432.85C989.47 450.81 950.472 461.797 914.226 467.406C895.587 470.297 877.748 471.742 860.576 471.742V471.754Z" fill="#E2E8F0"/>
<path d="M865.332 454.175C837.566 454.175 811.5 450.521 786.466 443.166C746.253 431.358 713.236 409.801 674.238 382.844C633.054 354.382 590.555 332.317 547.944 317.282C505.445 302.283 460.943 294.696 417.897 287.353C383.776 281.536 348.492 275.522 314.371 265.842C254.68 248.911 197.914 218.114 140.833 171.704C94.8027 134.257 49.1465 87.2809 -2.83398 23.8362L-2.09531 23.0498C49.8346 86.4251 95.4402 133.367 141.42 170.768C198.389 217.096 255.045 247.836 314.614 264.732C348.684 274.388 383.948 280.402 418.049 286.219C461.125 293.563 505.668 301.161 548.238 316.184C590.929 331.253 633.499 353.353 674.754 381.861C713.681 408.76 746.638 430.282 786.719 442.044C824.806 453.227 865.322 455.829 910.593 449.989C946.849 445.305 986.677 434.978 1032.36 418.405C1115.4 388.291 1197.46 349.641 1276.81 312.275C1337.04 283.906 1399.32 254.578 1461.6 229.181L1461.95 230.269C1399.7 255.665 1337.43 284.982 1277.21 313.339C1197.83 350.716 1115.75 389.378 1032.68 419.504C986.93 436.1 947.031 446.439 910.715 451.134C895.061 453.158 879.964 454.164 865.342 454.164L865.332 454.175Z" fill="#E2E8F0"/>
<path d="M871.879 435.035C842.585 435.035 815.153 431.091 788.975 423.262C747.761 410.934 713.155 387.781 676.514 363.275L673.904 361.529C631.85 333.403 588.501 311.627 545.04 296.801C505.233 283.212 463.665 275.625 423.452 268.282C387.976 261.805 351.295 255.109 315.93 244.308C256.745 226.243 199.978 194.637 142.402 147.684C96.6444 110.375 50.5227 63.5493 -2.75293 0.324341L-2.02437 -0.473633C51.2007 62.6935 97.2819 109.473 142.999 146.747C200.474 193.619 257.129 225.168 316.203 243.198C351.518 253.976 388.168 260.672 423.624 267.148C463.867 274.492 505.466 282.09 545.334 295.702C588.865 310.563 632.295 332.374 674.42 360.546L677.03 362.292C713.61 386.763 748.166 409.87 789.238 422.163C858.158 442.772 935.759 436.353 1033.46 401.948C1128.76 368.387 1222.28 322.289 1312.74 277.707C1361.4 253.722 1411.73 228.915 1461.65 206.41L1462.02 207.485C1412.12 229.979 1361.8 254.785 1313.14 278.771C1222.67 323.365 1129.12 369.474 1033.76 403.047C972.966 424.453 919.923 435.047 871.899 435.047L871.879 435.035Z" fill="#E2E8F0"/>
</g>
<defs>
<clipPath id="clip0_774_8884">
<rect width="1440" height="616" fill="white"/>
</clipPath>
</defs>
</svg>
