<svg width="41" height="41" viewBox="0 0 41 41" fill="none" xmlns="http://www.w3.org/2000/svg">
  <path d="M2.79785 5.9336C2.79785 3.72446 4.58871 1.93359 6.79785 1.93359H34.8085C38.1222 1.93359 40.8085 4.61989 40.8085 7.93359V32.1364C40.8085 36.8549 36.9834 40.6801 32.2648 40.6801H8.79786C5.48415 40.6801 2.79785 37.9938 2.79785 34.6801V5.9336Z" fill="#97A4FA"/>
  <path d="M0.808594 4.67969C0.808594 2.47055 2.59945 0.679688 4.80859 0.679688H31.0182C33.2273 0.679688 35.0182 2.47055 35.0182 4.67969V31.5515C35.0182 33.7607 33.2273 35.5515 31.0182 35.5515H4.8086C2.59946 35.5515 0.808594 33.7607 0.808594 31.5515V4.67969Z" fill="white"/>
  <path d="M15.4731 7.71582L29.157 7.71582" stroke="#97A4FA" stroke-width="5" stroke-linecap="round"/>
  <path d="M15.4731 18.8027L29.157 18.8027" stroke="#97A4FA" stroke-width="5" stroke-linecap="round"/>
  <path d="M15.4731 28.4912L29.157 28.4912" stroke="#97A4FA" stroke-width="5" stroke-linecap="round"/>
  <path d="M11.1275 5.63031L6.56617 10.2799L4.47559 8.14883L5.01154 7.60251L6.56617 9.18336L10.5915 5.08398L11.1275 5.63031Z" fill="#97A4FA"/>
  <path d="M11.1275 15.7055L6.56617 20.3551L4.47559 18.224L5.01154 17.6777L6.56617 19.2586L10.5915 15.1592L11.1275 15.7055Z" fill="#97A4FA"/>
  <path d="M11.1275 26.1664L6.56617 30.816L4.47559 28.685L5.01154 28.1386L6.56617 29.7195L10.5915 25.6201L11.1275 26.1664Z" fill="#97A4FA"/>
</svg>
